<svg width="14" height="12" viewBox="0 0 14 12" fill="none" xmlns="http://www.w3.org/2000/svg">
<path fill-rule="evenodd" clip-rule="evenodd" d="M11 6.00001C11.4987 5.99988 11.9874 5.8599 12.4106 5.59596C12.8338 5.33202 13.1744 4.9547 13.3939 4.50686C13.6134 4.05903 13.7029 3.55861 13.6522 3.06246C13.6015 2.56632 13.4128 2.09432 13.1073 1.70008C12.8019 1.30584 12.392 1.00516 11.9242 0.832188C11.4564 0.659219 10.9495 0.620894 10.4611 0.721565C9.97259 0.822236 9.52215 1.05787 9.16089 1.4017C8.79963 1.74553 8.54203 2.18378 8.41734 2.66667H1.00001C0.8232 2.66667 0.653631 2.73691 0.528607 2.86193C0.403583 2.98696 0.333345 3.15653 0.333345 3.33334C0.333345 3.51015 0.403583 3.67972 0.528607 3.80474C0.653631 3.92977 0.8232 4.00001 1.00001 4.00001H8.41734C8.71334 5.15001 9.75734 6.00001 11 6.00001ZM9.66668 3.33334C9.66668 3.68696 9.80715 4.0261 10.0572 4.27615C10.3073 4.5262 10.6464 4.66667 11 4.66667C11.3536 4.66667 11.6928 4.5262 11.9428 4.27615C12.1929 4.0261 12.3333 3.68696 12.3333 3.33334C12.3333 2.97972 12.1929 2.64058 11.9428 2.39053C11.6928 2.14048 11.3536 2.00001 11 2.00001C10.6464 2.00001 10.3073 2.14048 10.0572 2.39053C9.80715 2.64058 9.66668 2.97972 9.66668 3.33334ZM0.333345 8.66667C0.332703 8.01716 0.569134 7.38975 0.998261 6.90219C1.42739 6.41463 2.01971 6.10045 2.66404 6.01862C3.30838 5.93679 3.96043 6.09293 4.4978 6.45775C5.03518 6.82256 5.42094 7.37095 5.58268 8.00001H13C13.1768 8.00001 13.3464 8.07024 13.4714 8.19527C13.5964 8.32029 13.6667 8.48986 13.6667 8.66667C13.6667 8.84348 13.5964 9.01305 13.4714 9.13808C13.3464 9.2631 13.1768 9.33334 13 9.33334H5.58268C5.41886 9.96033 5.03243 10.5063 4.49556 10.8692C3.95869 11.2321 3.30807 11.3873 2.6652 11.3056C2.02232 11.224 1.43113 10.9111 1.00203 10.4255C0.572924 9.93991 0.335235 9.31471 0.333345 8.66667ZM4.33334 8.66667C4.33334 8.31305 4.19287 7.97391 3.94282 7.72386C3.69277 7.47382 3.35363 7.33334 3.00001 7.33334C2.64639 7.33334 2.30725 7.47382 2.0572 7.72386C1.80715 7.97391 1.66668 8.31305 1.66668 8.66667C1.66668 9.02029 1.80715 9.35943 2.0572 9.60948C2.30725 9.85953 2.64639 10 3.00001 10C3.35363 10 3.69277 9.85953 3.94282 9.60948C4.19287 9.35943 4.33334 9.02029 4.33334 8.66667Z" fill="white"/>
</svg>
